<svg xmlns="http://www.w3.org/2000/svg" width="960" height="720" viewBox="0 0 960 720" role="img" aria-labelledby="title desc">
  <title id="title">Student notes on a desk</title>
  <desc id="desc">A clean study desk with notes, flashcards, a laptop, and soft Aceley brand colours.</desc>
  <defs>
    <linearGradient id="bg" x1="90" y1="52" x2="846" y2="667" gradientUnits="userSpaceOnUse">
      <stop stop-color="#F8FAFC"/>
      <stop offset=".55" stop-color="#EEF2FF"/>
      <stop offset="1" stop-color="#FEFCE8"/>
    </linearGradient>
    <linearGradient id="screen" x1="322" y1="186" x2="660" y2="468" gradientUnits="userSpaceOnUse">
      <stop stop-color="#312E81"/>
      <stop offset="1" stop-color="#1E1B4B"/>
    </linearGradient>
    <filter id="shadow" x="-20%" y="-20%" width="140%" height="140%" color-interpolation-filters="sRGB">
      <feDropShadow dx="0" dy="22" stdDeviation="22" flood-color="#1E1B4B" flood-opacity=".16"/>
    </filter>
  </defs>
  <rect width="960" height="720" rx="48" fill="url(#bg)"/>
  <circle cx="760" cy="142" r="92" fill="#FACC15" opacity=".13"/>
  <circle cx="188" cy="612" r="118" fill="#312E81" opacity=".08"/>
  <g filter="url(#shadow)">
    <rect x="248" y="166" width="464" height="312" rx="26" fill="#1E1B4B"/>
    <rect x="276" y="194" width="408" height="252" rx="18" fill="url(#screen)"/>
    <rect x="326" y="238" width="152" height="18" rx="9" fill="#FACC15"/>
    <rect x="326" y="284" width="248" height="14" rx="7" fill="#E0E7FF" opacity=".9"/>
    <rect x="326" y="316" width="300" height="14" rx="7" fill="#C7D2FE" opacity=".75"/>
    <rect x="326" y="348" width="214" height="14" rx="7" fill="#E0E7FF" opacity=".9"/>
    <rect x="560" y="238" width="74" height="74" rx="18" fill="#FFFFFF" opacity=".16"/>
    <path d="M590 263l11 31 31 11-31 11-11 31-11-31-31-11 31-11 11-31Z" fill="#FACC15"/>
    <rect x="206" y="478" width="548" height="34" rx="17" fill="#312E81"/>
    <rect x="168" y="510" width="624" height="24" rx="12" fill="#C7D2FE"/>
  </g>
  <g filter="url(#shadow)">
    <rect x="126" y="202" width="168" height="214" rx="20" transform="rotate(-10 126 202)" fill="#fff"/>
    <rect x="146" y="228" width="98" height="12" rx="6" transform="rotate(-10 146 228)" fill="#312E81"/>
    <rect x="151" y="270" width="124" height="9" rx="4.5" transform="rotate(-10 151 270)" fill="#CBD5E1"/>
    <rect x="157" y="304" width="104" height="9" rx="4.5" transform="rotate(-10 157 304)" fill="#CBD5E1"/>
    <rect x="163" y="338" width="118" height="9" rx="4.5" transform="rotate(-10 163 338)" fill="#CBD5E1"/>
  </g>
  <g filter="url(#shadow)">
    <rect x="668" y="380" width="154" height="104" rx="18" transform="rotate(8 668 380)" fill="#fff"/>
    <rect x="694" y="410" width="82" height="12" rx="6" transform="rotate(8 694 410)" fill="#FACC15"/>
    <rect x="692" y="446" width="108" height="10" rx="5" transform="rotate(8 692 446)" fill="#CBD5E1"/>
    <rect x="674" y="508" width="154" height="104" rx="18" transform="rotate(-5 674 508)" fill="#312E81"/>
    <rect x="700" y="536" width="86" height="12" rx="6" transform="rotate(-5 700 536)" fill="#fff"/>
    <rect x="699" y="572" width="108" height="10" rx="5" transform="rotate(-5 699 572)" fill="#C7D2FE"/>
  </g>
  <g filter="url(#shadow)">
    <rect x="132" y="468" width="126" height="126" rx="63" fill="#fff"/>
    <path d="M166 487h58v44a29 29 0 0 1-58 0v-44Z" fill="#FACC15" opacity=".9"/>
    <path d="M224 506h16a19 19 0 0 1 0 38h-16" fill="none" stroke="#FACC15" stroke-width="14" stroke-linecap="round"/>
  </g>
</svg>
