<svg xmlns="http://www.w3.org/2000/svg" width="960" height="720" viewBox="0 0 960 720" role="img" aria-labelledby="title desc">
  <title id="title">Smart flashcard study session</title>
  <desc id="desc">A focused flashcard study scene with progress, rating buttons, and clean student materials.</desc>
  <defs>
    <linearGradient id="bg" x1="124" y1="71" x2="817" y2="643" gradientUnits="userSpaceOnUse">
      <stop stop-color="#F8FAFC"/>
      <stop offset=".54" stop-color="#EEF2FF"/>
      <stop offset="1" stop-color="#FEFCE8"/>
    </linearGradient>
    <linearGradient id="card" x1="260" y1="158" x2="678" y2="545" gradientUnits="userSpaceOnUse">
      <stop stop-color="#312E81"/>
      <stop offset="1" stop-color="#1E1B4B"/>
    </linearGradient>
    <filter id="shadow" x="-20%" y="-20%" width="140%" height="140%" color-interpolation-filters="sRGB">
      <feDropShadow dx="0" dy="24" stdDeviation="24" flood-color="#1E1B4B" flood-opacity=".16"/>
    </filter>
  </defs>
  <rect width="960" height="720" rx="48" fill="url(#bg)"/>
  <circle cx="170" cy="178" r="104" fill="#FACC15" opacity=".12"/>
  <circle cx="756" cy="556" r="132" fill="#312E81" opacity=".08"/>
  <g filter="url(#shadow)">
    <rect x="236" y="132" width="488" height="414" rx="38" fill="url(#card)"/>
    <rect x="286" y="184" width="388" height="14" rx="7" fill="#C7D2FE" opacity=".32"/>
    <rect x="286" y="184" width="264" height="14" rx="7" fill="#FACC15"/>
    <rect x="306" y="246" width="348" height="190" rx="28" fill="#fff"/>
    <rect x="354" y="294" width="106" height="14" rx="7" fill="#FACC15"/>
    <rect x="354" y="338" width="252" height="20" rx="10" fill="#1E1B4B"/>
    <rect x="354" y="376" width="178" height="20" rx="10" fill="#312E81" opacity=".3"/>
    <g>
      <rect x="308" y="472" width="96" height="44" rx="18" fill="#fff" opacity=".12"/>
      <rect x="432" y="472" width="96" height="44" rx="18" fill="#FACC15"/>
      <rect x="556" y="472" width="96" height="44" rx="18" fill="#fff" opacity=".12"/>
    </g>
  </g>
  <g filter="url(#shadow)">
    <rect x="122" y="432" width="182" height="126" rx="22" transform="rotate(-9 122 432)" fill="#fff"/>
    <rect x="152" y="466" width="86" height="12" rx="6" transform="rotate(-9 152 466)" fill="#312E81"/>
    <rect x="154" y="504" width="116" height="10" rx="5" transform="rotate(-9 154 504)" fill="#CBD5E1"/>
    <rect x="660" y="214" width="174" height="120" rx="22" transform="rotate(12 660 214)" fill="#fff"/>
    <rect x="696" y="250" width="76" height="12" rx="6" transform="rotate(12 696 250)" fill="#FACC15"/>
    <rect x="690" y="286" width="112" height="10" rx="5" transform="rotate(12 690 286)" fill="#CBD5E1"/>
  </g>
  <g filter="url(#shadow)">
    <rect x="718" y="408" width="92" height="92" rx="46" fill="#fff"/>
    <path d="M748 461c18 18 42 18 60 0" stroke="#FACC15" stroke-width="14" stroke-linecap="round"/>
    <path d="M746 443h64" stroke="#312E81" stroke-width="12" stroke-linecap="round"/>
  </g>
  <path d="M130 610c77 33 153 26 228-21" stroke="#312E81" stroke-width="18" stroke-linecap="round" opacity=".12"/>
  <path d="M646 126c55-19 99-8 131 30" stroke="#FACC15" stroke-width="18" stroke-linecap="round" opacity=".48"/>
</svg>
