<svg xmlns="http://www.w3.org/2000/svg" viewBox="0 0 266 300"><defs><linearGradient id="mk" x1="0" y1="0" x2="0.35" y2="1"><stop offset="0" stop-color="#312E81"/><stop offset="1" stop-color="#1E1B4B"/></linearGradient></defs><g transform="translate(13.60,14.40) scale(0.80000)"><path d="M0 0 C1.164 3.491 0.902 3.823 -0.659 6.961 C-0.853 7.357 -0.853 7.357 -1.833 9.36 C-2.264 10.213 -2.694 11.066 -3.137 11.945 C-3.573 12.83 -4.008 13.714 -4.457 14.625 C-5.858 17.463 -7.272 20.294 -8.688 23.125 C-10.082 25.936 -11.474 28.748 -12.864 31.56 C-13.73 33.31 -14.599 35.059 -15.472 36.806 C-18.128 42.144 -20.625 47.531 -23 53 C-23.706 52.783 -24.413 52.567 -25.141 52.344 C-45.319 46.868 -65.074 49.583 -83.153 59.881 C-98.581 69.23 -108.796 84.611 -114 101.688 C-117.969 120.527 -114.617 138.566 -105 155 C-94.546 170.507 -80.07 180.488 -62 185 C-61.257 185.193 -60.515 185.387 -59.75 185.586 C-40.532 188.48 -22.153 184.729 -6.132 173.716 C7.549 163.561 16.536 149.693 20.457 133.082 C21 131 21 131 22 130 C23.749 129.906 25.502 129.883 27.254 129.886 C28.391 129.887 29.528 129.887 30.699 129.887 C31.903 129.892 33.107 129.897 34.348 129.902 C34.898 129.903 34.898 129.903 37.681 129.905 C41.808 129.911 45.935 129.925 50.062 129.938 C59.282 129.958 68.501 129.979 78 130 C78 166.63 78 203.26 78 241 C59.52 241 41.04 241 22 241 C22 236.38 22 231.76 22 227 C20.872 227.58 19.744 228.16 18.582 228.758 C-14.015 245.1 -51.037 249.529 -86.062 238.312 C-119.659 226.884 -145.498 203.85 -161.179 172.252 C-174.698 143.782 -176.652 110.979 -167 81 C-166.799 80.371 -166.598 79.741 -166.392 79.093 C-156.888 49.939 -137.514 24.555 -111 9 C-110.699 8.819 -110.699 8.819 -109.173 7.904 C-78.424 -10.358 -33.023 -16.512 0 0 Z " fill="url(#mk)" transform="translate(181,88)"/><path d="M0 0 C2.962 1.03 4.029 1.539 5.875 4 C6.216 6.544 6.216 6.544 6.168 9.543 C6.163 10.08 6.163 10.08 6.139 12.795 C6.114 13.914 6.088 15.034 6.062 16.188 C6.056 16.753 6.056 16.753 6.021 19.615 C5.986 22.411 5.937 25.205 5.875 28 C6.546 27.974 7.216 27.948 7.907 27.921 C10.959 27.816 14.01 27.752 17.062 27.688 C18.118 27.646 19.173 27.604 20.26 27.561 C28.079 27.437 28.079 27.437 32.113 30.289 C33.875 33 33.875 33 33.875 36.688 C32.875 40 32.875 40 29.875 42 C27.331 42.227 27.331 42.227 24.332 42.195 C23.795 42.192 23.795 42.192 21.08 42.176 C19.961 42.159 18.841 42.142 17.688 42.125 C16.556 42.116 15.425 42.107 14.26 42.098 C11.465 42.074 8.67 42.041 5.875 42 C5.891 42.711 5.906 43.423 5.923 44.156 C5.985 47.374 6.024 50.593 6.062 53.812 C6.088 54.932 6.113 56.052 6.139 57.205 C6.148 58.278 6.158 59.351 6.168 60.457 C6.184 61.447 6.199 62.437 6.216 63.456 C5.875 66 5.875 66 4.54 67.792 C2.019 69.621 -0.042 69.874 -3.125 70 C-5.438 69.125 -5.438 69.125 -7.125 67 C-8.782 58.853 -8.217 50.287 -8.125 42 C-8.801 42.016 -9.477 42.031 -10.173 42.048 C-13.24 42.11 -16.307 42.149 -19.375 42.188 C-19.907 42.2 -19.907 42.2 -22.598 42.264 C-23.622 42.273 -24.647 42.283 -25.703 42.293 C-26.646 42.309 -27.588 42.324 -28.56 42.341 C-31.593 41.938 -32.921 41.089 -35.125 39 C-36.062 36.625 -36.062 36.625 -36.125 34 C-33.931 29.403 -33.931 29.403 -31.125 28 C-29.385 27.916 -27.641 27.893 -25.898 27.902 C-24.867 27.906 -23.836 27.909 -22.773 27.912 C-22.233 27.916 -22.233 27.916 -19.5 27.938 C-18.956 27.94 -18.956 27.94 -16.203 27.951 C-13.51 27.963 -10.818 27.979 -8.125 28 C-8.151 27.329 -8.177 26.659 -8.204 25.968 C-8.309 22.916 -8.373 19.865 -8.438 16.812 C-8.479 15.757 -8.521 14.702 -8.564 13.615 C-8.688 5.784 -8.688 5.784 -5.801 1.762 C-3.125 0 -3.125 0 0 0 Z " fill="#FACC15" transform="translate(258.125,7)"/><path d="M0 0 C16.265 3.56 31.573 23.702 40.329 36.983 C52.01 55.365 59 76.131 59 98 C40.52 98 22.04 98 3 98 C2.175 95.03 2.175 95.03 -2 80 C-7.51 68.246 -15.033 59.259 -25 51 C-24.188 49.375 -23.375 47.75 -22.563 46.126 C-21.843 44.686 -21.123 43.246 -20.404 41.806 C-18.61 38.215 -16.813 34.626 -15.004 31.043 C-9.829 20.776 -4.887 10.407 0 0 Z " fill="#FACC15" transform="translate(200,99)"/></g></svg>